<svg version="1.1" id="Layer_1" xmlns="http://www.w3.org/2000/svg" xmlns:xlink="http://www.w3.org/1999/xlink" x="0px" y="0px"
	 width="100%" viewBox="0 0 672 1024" enable-background="new 0 0 672 1024" xml:space="preserve">
<path fill="#000000" opacity="1.000000" stroke="none" 
	d="
M265.050140,351.960999 
	C281.961975,342.407654 300.074341,336.423584 317.317810,328.499634 
	C333.273651,321.167419 348.677582,312.974030 361.532196,300.724365 
	C371.955688,290.791473 379.703949,279.087830 384.659851,265.551453 
	C385.116974,264.302917 385.633453,263.073669 386.186218,261.864594 
	C386.298126,261.619904 386.698456,261.507080 387.415710,261.041290 
	C389.719025,267.071045 390.061676,273.326111 389.920502,279.406403 
	C389.363342,303.394989 380.354889,323.997559 364.151825,341.615875 
	C351.732330,355.120148 336.849884,365.477692 321.649017,375.453949 
	C311.895447,381.855103 302.168152,388.296753 293.346680,395.967773 
	C285.834839,402.499939 279.909637,410.227997 275.987732,419.465393 
	C270.281891,432.904633 274.825378,444.540283 282.367554,455.521271 
	C288.890442,465.018280 296.804047,473.395569 304.683990,481.763336 
	C315.006653,492.724976 324.827606,504.080170 330.691559,518.154907 
	C339.773987,539.954651 340.037720,561.479431 327.685272,582.325989 
	C326.886810,583.673523 326.457184,585.476196 324.530334,585.922119 
	C323.088837,584.894653 323.682434,583.442139 323.860443,582.262939 
	C326.571014,564.307678 320.712189,548.775208 310.280029,534.622864 
	C300.876495,521.865906 288.522461,512.189331 276.094879,502.630859 
	C262.630249,492.274780 248.833466,482.311584 238.521530,468.465912 
	C227.768921,454.028595 221.326523,437.875366 220.991898,419.915558 
	C220.587143,398.191437 229.492096,380.216492 245.682831,365.827362 
	C251.554718,360.608917 257.987366,356.154480 265.050140,351.960999 
z"/>
<path fill="#000000" opacity="1.000000" stroke="none" 
	d="
M445.764984,512.000000 
	C445.756012,459.672211 445.747498,407.844452 445.739502,356.016663 
	C445.738159,347.300507 449.077759,343.833649 457.720642,343.752014 
	C464.885895,343.684357 472.053467,343.658844 479.217896,343.761108 
	C487.225311,343.875366 490.322540,347.079254 490.323792,355.089264 
	C490.333801,420.082367 490.335052,485.075439 490.326630,550.068542 
	C490.325500,558.672363 487.635529,561.315735 478.922577,561.340210 
	C471.423431,561.361267 463.923950,561.372559 456.425018,561.325928 
	C449.401886,561.282288 445.922455,558.030151 445.842255,550.995483 
	C445.695984,538.165039 445.778503,525.331970 445.764984,512.000000 
z"/>
<path fill="#000000" opacity="1.000000" stroke="none" 
	d="
M384.027954,452.000000 
	C384.003662,436.844940 383.992767,422.189850 383.948914,407.534851 
	C383.923004,398.883881 387.011108,395.667206 395.475891,395.657104 
	C403.303070,395.647766 411.131165,395.586151 418.957123,395.684235 
	C425.066254,395.760773 428.287598,398.849426 428.294403,404.924011 
	C428.349335,454.052032 428.349792,503.180176 428.294830,552.308167 
	C428.288391,558.059387 425.007080,561.247620 419.264252,561.319458 
	C410.772247,561.425720 402.276825,561.431946 393.785095,561.316284 
	C388.509277,561.244507 385.368774,558.534668 384.538483,553.383118 
	C384.117737,550.772766 384.073273,548.081848 384.070038,545.427124 
	C384.032562,514.451416 384.035400,483.475708 384.027954,452.000000 
z"/>
<path fill="#000000" opacity="1.000000" stroke="none" 
	d="
M546.089844,707.410278 
	C546.655823,725.512390 535.901733,737.220520 517.513733,739.288879 
	C501.061188,741.139526 484.563477,739.799316 468.094208,740.266296 
	C465.115967,740.350708 464.547882,738.954041 464.552856,736.296936 
	C464.613251,703.971008 464.613647,671.644836 464.515625,639.319092 
	C464.505890,636.104126 465.520691,634.787048 468.796234,634.872070 
	C484.273926,635.273804 499.801422,633.910461 515.229919,635.743469 
	C525.712708,636.989014 535.111267,640.466370 539.453369,651.396240 
	C544.842590,664.961792 541.075012,675.359375 527.246704,684.587402 
	C538.080139,688.367249 544.918396,695.338257 546.089844,707.410278 
M506.277405,694.270569 
	C500.280701,694.265320 494.283600,694.296753 488.287445,694.237366 
	C485.797577,694.212708 484.006531,694.807495 484.010010,697.758484 
	C484.018433,704.920593 483.983429,712.082764 483.995392,719.244873 
	C483.998901,721.341980 484.830566,722.855530 487.185425,722.841492 
	C496.009552,722.788879 504.874359,723.185425 513.644714,722.458435 
	C520.960327,721.852051 525.361450,716.299988 525.614746,709.283875 
	C525.865967,702.322571 522.232605,697.491943 515.083130,695.450256 
	C512.524780,694.719604 509.916992,694.119568 506.277405,694.270569 
M503.959930,678.601257 
	C506.230133,678.109680 508.550903,677.781250 510.760895,677.095703 
	C517.119080,675.123413 520.721375,670.339355 520.631531,664.248413 
	C520.538391,657.934326 517.155029,654.102356 509.998138,652.297546 
	C502.447693,650.393494 494.761505,651.632935 487.139404,651.400818 
	C484.419617,651.317993 483.938110,653.236572 483.947418,655.455750 
	C483.973969,661.781311 484.063293,668.108276 483.959839,674.432007 
	C483.905212,677.770752 485.495300,678.747192 488.574615,678.655151 
	C493.397736,678.511047 498.228455,678.619507 503.959930,678.601257 
z"/>
<path fill="#000000" opacity="1.000000" stroke="none" 
	d="
M367.002502,520.000000 
	C366.975220,529.993408 367.062134,539.488953 366.886505,548.979675 
	C366.689728,559.616028 360.683563,563.940674 350.326660,561.280579 
	C347.256775,560.492126 348.247131,558.463379 348.509003,556.556458 
	C350.958466,538.721008 347.206299,522.185913 338.071136,506.778442 
	C334.236115,500.310242 329.760620,494.297546 324.761597,488.704468 
	C322.623322,486.312134 321.667236,483.837860 321.702606,480.614258 
	C321.834137,468.624023 321.712036,456.631226 321.747864,444.639587 
	C321.772034,436.548615 325.192627,433.020264 333.227356,432.903412 
	C340.554138,432.796814 347.884491,432.804840 355.211670,432.895111 
	C362.872345,432.989471 366.131287,435.562500 366.536346,443.077820 
	C367.082367,453.208130 366.958710,463.378021 366.997162,473.531403 
	C367.055206,488.854034 367.005035,504.177124 367.002502,520.000000 
z"/>
<path fill="#000000" opacity="1.000000" stroke="none" 
	d="
M434.190521,715.100830 
	C428.605316,728.316345 425.126953,741.996216 418.213440,754.220642 
	C410.954987,767.055237 397.221283,773.067017 382.948303,770.152527 
	C379.850464,769.520020 378.252197,768.091858 378.836853,764.675964 
	C379.449982,761.093689 378.728760,756.747681 380.542694,754.046021 
	C382.663971,750.886597 386.943665,754.117859 390.352356,753.775818 
	C399.380951,752.869629 405.434174,743.426392 402.024139,734.970398 
	C392.815094,712.134216 383.604248,689.298828 374.408813,666.457153 
	C373.798553,664.941345 372.938904,663.464355 373.366791,660.803284 
	C379.447296,660.803284 385.663055,660.648254 391.864319,660.880005 
	C394.324432,660.971985 394.523254,663.626038 395.196472,665.401062 
	C400.564087,679.552795 405.839874,693.739380 411.174164,707.903870 
	C411.919983,709.884338 412.830597,711.802734 414.057983,714.667175 
	C417.988831,706.863525 420.100250,699.397156 422.800507,692.179321 
	C426.180847,683.143616 429.506409,674.084595 432.647858,664.964050 
	C433.740417,661.791992 435.465271,660.466309 438.859314,660.624878 
	C443.808807,660.856262 448.777130,660.684326 455.017273,660.684326 
	C447.895508,679.271484 441.102417,697.000916 434.190521,715.100830 
z"/>
<path fill="#000000" opacity="1.000000" stroke="none" 
	d="
M251.710556,725.660706 
	C258.400482,725.106079 263.728607,722.779968 267.568390,717.596619 
	C267.765808,717.330078 267.954712,716.943176 268.223816,716.860535 
	C274.062317,715.067078 276.888153,720.410706 281.032043,722.511841 
	C284.020905,724.027283 281.588806,726.245483 280.381836,727.865540 
	C271.217133,740.166809 258.187836,742.403198 244.192673,741.012146 
	C225.703690,739.174316 213.139923,726.791321 210.655060,708.780212 
	C207.682144,687.231628 216.350098,669.328003 233.823700,662.677307 
	C246.006546,658.040405 258.370728,658.524536 269.902588,665.228516 
	C280.811005,671.570129 284.811340,682.147339 285.156860,693.904419 
	C285.623566,709.784485 287.189301,706.911621 272.727631,707.102844 
	C260.237457,707.268005 247.743286,707.109558 235.251160,707.162170 
	C230.200165,707.183472 229.726349,707.934814 231.238846,712.808472 
	C234.030563,721.804077 239.952209,725.605896 251.710556,725.660706 
M256.864349,676.408386 
	C241.868515,671.771118 230.591003,680.230408 231.100281,692.562866 
	C242.139038,692.562866 253.217239,692.606812 264.294464,692.522644 
	C266.304962,692.507385 266.502869,690.952759 266.263702,689.258606 
	C265.466217,683.609070 262.800354,679.282532 256.864349,676.408386 
z"/>
<path fill="#000000" opacity="1.000000" stroke="none" 
	d="
M104.591087,688.999878 
	C104.582367,672.351135 104.683449,656.201050 104.487091,640.054688 
	C104.439758,636.163452 105.561829,634.802307 109.549278,634.838928 
	C127.694244,635.005859 145.842468,635.006348 163.987473,634.841980 
	C168.205032,634.803772 169.457321,636.407349 169.355286,640.428894 
	C168.969177,655.645569 171.370041,652.941833 156.810196,653.159241 
	C147.322845,653.300964 137.830383,653.281860 128.342972,653.143799 
	C124.744484,653.091431 123.206558,654.320312 123.355095,658.073975 
	C123.572144,663.558960 123.668480,669.077454 123.305283,674.547729 
	C122.998009,679.175842 125.042694,680.207031 129.165222,680.122253 
	C138.650543,679.927185 148.148376,680.263245 157.629929,679.992432 
	C162.591827,679.850708 164.366653,681.520630 164.220535,686.601257 
	C163.857361,699.230347 165.006317,697.176514 153.528412,697.311768 
	C145.205429,697.409912 136.876984,697.481140 128.557892,697.279358 
	C124.689423,697.185547 123.254684,698.463684 123.333931,702.443970 
	C123.552612,713.427429 123.283684,724.420654 123.507576,735.403931 
	C123.583054,739.106812 122.437943,740.284424 118.717453,740.327454 
	C104.633377,740.490295 104.629524,740.608521 104.613197,726.458740 
	C104.598984,714.139099 104.598335,701.819519 104.591087,688.999878 
z"/>
<path fill="#000000" opacity="1.000000" stroke="none" 
	d="
M321.842224,722.772278 
	C318.493866,727.776184 315.344574,732.480896 312.210236,737.195679 
	C311.280212,738.594604 310.404053,740.144348 308.479218,740.160706 
	C302.194061,740.214294 295.908203,740.180786 289.772766,740.180786 
	C288.881409,737.422058 290.593048,736.223267 291.602722,734.825623 
	C298.916595,724.700867 306.214081,714.562500 313.682495,704.552185 
	C315.907410,701.569946 316.079681,699.241333 313.723267,696.146362 
	C306.460571,686.607666 299.458069,676.869690 292.431091,667.153748 
	C291.210876,665.466675 289.400787,664.022827 289.350708,660.828491 
	C296.298431,660.828491 303.185364,660.741638 310.067749,660.880554 
	C312.179443,660.923157 312.877808,663.047058 313.841461,664.550110 
	C318.409943,671.676086 322.762543,678.952454 328.735352,685.869812 
	C333.035950,680.893311 336.423157,675.727600 339.053497,670.322083 
	C342.708160,662.811462 347.710663,659.076538 356.251953,660.620056 
	C359.445740,661.197205 362.829224,660.221558 366.054016,661.163025 
	C366.463135,663.721497 364.637390,664.999268 363.539825,666.549500 
	C356.419434,676.606323 349.325409,686.684692 342.003571,696.594116 
	C339.866516,699.486450 339.830597,701.602661 342.032318,704.475769 
	C349.730682,714.521729 357.195007,724.747009 364.742798,734.908142 
	C365.713104,736.214478 367.015625,737.345337 367.259918,739.913452 
	C360.103577,739.913452 353.096771,740.044006 346.101288,739.820435 
	C344.384583,739.765564 343.779541,737.600769 342.856567,736.241150 
	C338.021606,729.118835 333.195953,721.990173 328.198792,714.615417 
	C325.248535,717.092957 323.864380,719.958679 321.842224,722.772278 
z"/>
<path fill="#000000" opacity="1.000000" stroke="none" 
	d="
M309.440582,265.441376 
	C322.998199,276.699188 324.777191,294.625519 313.805847,306.641388 
	C303.410614,318.026306 284.639923,318.276367 273.521454,307.178070 
	C263.794098,297.468353 262.832397,280.977692 271.369171,270.272217 
	C280.222137,259.170227 295.930023,257.073090 309.440582,265.441376 
z"/>
<path fill="#000000" opacity="1.000000" stroke="none" 
	d="
M559.883850,680.000000 
	C559.880188,666.680969 560.027100,653.859070 559.789795,641.044373 
	C559.708069,636.629272 560.848267,634.805359 565.621094,634.830261 
	C579.346436,634.901794 579.348145,634.720520 579.347900,648.437805 
	C579.347412,676.906128 579.230347,705.375427 579.452637,733.841980 
	C579.492126,738.895264 578.015991,740.450378 572.964478,740.359253 
	C559.924316,740.124207 559.912781,740.342651 559.901611,727.447815 
	C559.888062,711.798523 559.888977,696.149292 559.883850,680.000000 
z"/>
<path fill="#000000" opacity="1.000000" stroke="none" 
	d="
M189.974396,740.251465 
	C178.462143,740.160278 179.729385,741.201843 179.713776,730.225159 
	C179.671661,700.606079 179.802094,670.986084 179.584091,641.368530 
	C179.547134,636.347717 180.964203,634.650146 186.055710,634.816650 
	C200.543076,635.290344 198.865204,632.962952 198.892960,647.532288 
	C198.946533,675.653687 198.922028,703.775146 198.917831,731.896606 
	C198.916580,740.259216 198.898117,740.259216 189.974396,740.251465 
z"/>
</svg>